<?xml version="1.0" standalone="no"?>
<!DOCTYPE svg PUBLIC "-//W3C//DTD SVG 20010904//EN"
 "http://www.w3.org/TR/2001/REC-SVG-20010904/DTD/svg10.dtd">
<svg version="1.0" xmlns="http://www.w3.org/2000/svg"
 width="640.000000pt" height="1280.000000pt" viewBox="0 0 640.000000 1280.000000"
 preserveAspectRatio="xMidYMid meet">
<metadata>
Created by potrace 1.15, written by Peter Selinger 2001-2017
</metadata>
<g transform="translate(0.000000,1280.000000) scale(0.100000,-0.100000)"
fill="#ed1d37" stroke="none">
<path d="M4195 12793 c-93 -14 -268 -68 -632 -194 -745 -258 -2121 -710 -2523
-830 -209 -63 -294 -103 -354 -170 -102 -114 -123 -346 -45 -506 63 -131 174
-203 474 -309 644 -227 801 -383 866 -859 17 -119 26 -8456 10 -8607 -28 -256
-105 -341 -345 -378 -38 -6 -165 -15 -283 -20 -214 -10 -315 -25 -376 -56
-135 -70 -183 -186 -174 -414 10 -247 80 -366 247 -421 l65 -22 2179 2 c1551
1 2193 5 2225 13 124 30 203 94 241 195 31 84 45 228 31 334 -21 161 -69 248
-168 302 -84 45 -163 57 -446 67 -283 11 -369 23 -446 65 -90 49 -125 128
-141 322 -8 90 -12 1763 -13 5633 l-2 5505 -22 91 c-43 187 -112 255 -263 260
-41 1 -88 0 -105 -3z"/>
</g>
</svg>
