<?xml version="1.0" standalone="no"?>
<!DOCTYPE svg PUBLIC "-//W3C//DTD SVG 20010904//EN"
 "http://www.w3.org/TR/2001/REC-SVG-20010904/DTD/svg10.dtd">
<svg version="1.0" xmlns="http://www.w3.org/2000/svg"
 width="640.000000pt" height="1280.000000pt" viewBox="0 0 640.000000 1280.000000"
 preserveAspectRatio="xMidYMid meet">
<metadata>
Created by potrace 1.15, written by Peter Selinger 2001-2017
</metadata>
<g transform="translate(0.000000,1280.000000) scale(0.100000,-0.100000)"
fill="#ff00ff" stroke="none">
<path d="M2440 12789 c-582 -26 -914 -201 -1112 -584 -52 -102 -111 -264 -128
-351 -33 -180 -31 -738 5 -1224 30 -403 35 -480 45 -685 5 -115 19 -460 30
-765 29 -805 46 -1119 75 -1410 18 -184 32 -414 45 -750 61 -1551 86 -1830
188 -2072 50 -119 102 -207 181 -308 73 -92 138 -144 304 -241 143 -85 194
-127 175 -144 -7 -7 -80 -54 -163 -105 -207 -128 -282 -186 -410 -315 -392
-394 -633 -875 -695 -1385 -5 -46 -10 -155 -10 -242 0 -842 498 -1628 1262
-1992 199 -95 358 -146 593 -188 170 -31 510 -31 702 0 657 106 1188 443 1545
982 235 354 358 765 358 1194 0 582 -236 1137 -679 1598 -108 113 -168 158
-381 291 -85 53 -171 110 -190 126 l-35 30 20 20 c11 11 75 53 143 95 259 159
380 280 480 481 106 213 151 481 172 1015 5 140 10 341 10 445 0 175 16 523
40 890 5 83 23 355 40 605 44 676 60 999 60 1250 0 247 6 374 50 1050 45 696
49 774 60 1080 11 307 2 573 -24 696 -45 212 -151 407 -315 577 -180 187 -373
278 -686 324 -93 14 -224 16 -860 17 -412 1 -815 -2 -895 -5z"/>
</g>
</svg>
