<svg xmlns="http://www.w3.org/2000/svg" data-name="Layer 1" viewBox="35 0 40 90" x="0px" y="0px"><title>Calculator Symbols</title><path fill="#ff00ff" d="M56.27,76.13h-.06a7.27,7.27,0,0,1-3.33-1.47,9,9,0,0,1-2-2.88c-.94-2.28-2.47-8.43-2.47-21.77s1.54-19.49,2.47-21.77a9.05,9.05,0,0,1,2-2.88,7.27,7.27,0,0,1,3.33-1.47h.06a.69.69,0,0,0-.06-1.37,8.6,8.6,0,0,0-4.66.76,10.8,10.8,0,0,0-3.62,3.23,25,25,0,0,0-3.57,8.41l-.09.34a59.26,59.26,0,0,0,0,29.51l.09.34a25,25,0,0,0,3.57,8.41,10.8,10.8,0,0,0,3.62,3.23,8.61,8.61,0,0,0,4.66.76.69.69,0,0,0,.06-1.37Z"/>
</svg>