<svg xmlns="http://www.w3.org/2000/svg" xmlns:xlink="http://www.w3.org/1999/xlink" xml:space="preserve" version="1.1" style="shape-rendering:geometricPrecision;text-rendering:geometricPrecision;image-rendering:optimizeQuality;" viewBox="15 0 100 100" x="0px" y="0px" fill-rule="evenodd" clip-rule="evenodd"><defs><style type="text/css">
   
       
  </style></defs><g><path fill="#371ded" d="M68 32l11 0c5,0 8,-5 10,-5 3,0 -2,13 -11,13l-13 0 -4 17 11 0c4,0 8,-4 10,-4 2,0 -1,13 -11,13l-12 0 -6 20c0,2 -5,3 -4,0l5 -20 -17 0 -6 20c-1,2 -5,3 -4,0l5 -20 -10 0c-5,0 -8,4 -10,4 -4,0 2,-13 11,-13l11 0 5 -17 -10 0c-6,0 -8,4 -10,4 -3,0 1,-12 11,-12l11 0 5 -18c1,-3 5,-3 4,0l-4 18 17 0 5 -18c1,-3 5,-3 4,0l-4 18zm-7 8l-18 0 -4 17 18 0 4 -17z"/></g>
  </svg>