<?xml version="1.0" standalone="no"?>
<!DOCTYPE svg PUBLIC "-//W3C//DTD SVG 20010904//EN"
 "http://www.w3.org/TR/2001/REC-SVG-20010904/DTD/svg10.dtd">
<svg version="1.0" xmlns="http://www.w3.org/2000/svg"
 width="1280.000000pt" height="1280.000000pt" viewBox="0 0 1280.000000 1280.000000"
 preserveAspectRatio="xMidYMid meet">
<metadata>
Created by potrace 1.15, written by Peter Selinger 2001-2017
</metadata>
<g transform="translate(0.000000,1280.000000) scale(0.100000,-0.100000)"
fill="#371ded" stroke="none">
<path d="M829 11978 c16 -24 889 -1271 1939 -2773 l1910 -2730 -33 -45 c-44
-61 -3909 -5552 -3918 -5568 -7 -9 316 -12 1580 -12 l1589 0 1224 1835 c674
1009 1227 1834 1230 1834 3 1 545 -824 1205 -1832 l1200 -1832 1663 -3 c914
-1 1662 1 1662 4 0 3 -887 1292 -1972 2863 -1084 1571 -1971 2861 -1972 2868
-1 6 873 1228 1942 2716 1068 1488 1942 2708 1942 2711 0 3 -715 6 -1589 6
l-1590 0 -1196 -1740 -1197 -1741 -807 1208 c-445 664 -967 1447 -1162 1738
l-354 530 -1663 3 -1663 2 30 -42z"/>
</g>
</svg>
